<svg width="24" height="24" viewBox="0 0 24 24" fill="none" xmlns="http://www.w3.org/2000/svg">
<path fill-rule="evenodd" clip-rule="evenodd" d="M11.6325 2.77649C13.8656 2.55984 15.7501 4.31664 15.7501 6.50999V7.24998H8.25008V6.69999C8.25008 4.79243 9.80833 2.94675 11.6298 2.77674L11.6325 2.77649ZM6.75008 7.31193V6.69999C6.75008 4.10798 8.81114 1.53411 11.489 1.28336C14.6153 0.980854 17.2501 3.44379 17.2501 6.50999V7.31194C18.8051 7.47739 19.9182 7.97513 20.6265 8.81721C21.5048 9.86138 21.587 11.2337 21.4455 12.5125L21.4443 12.523L21.4442 12.523L20.695 18.5166C20.5845 19.5429 20.3256 20.6669 19.4096 21.5037C18.4985 22.3361 17.0869 22.75 15 22.75H9.00003C6.91318 22.75 5.50156 22.3361 4.59042 21.5037C3.67447 20.6669 3.41557 19.5428 3.30502 18.5166L2.55582 12.523L2.55451 12.5125L2.55458 12.5125C2.41308 11.2337 2.4953 9.86138 3.37357 8.81721C4.08188 7.97511 5.19502 7.47737 6.75008 7.31193ZM4.79424 18.337L4.04491 12.3423C3.91738 11.1838 4.05047 10.3428 4.52149 9.78275C4.98608 9.23041 5.95307 8.74998 8.00003 8.74998H16C18.047 8.74998 19.014 9.23041 19.4786 9.78275C19.9496 10.3427 20.0827 11.1837 19.9552 12.3422L19.2058 18.337L19.2057 18.3369L19.2043 18.3501C19.1045 19.282 18.8975 19.9399 18.3979 20.3963C17.8916 20.8589 16.9332 21.25 15 21.25H9.00003C7.06688 21.25 6.1085 20.8589 5.60215 20.3963C5.10258 19.9399 4.89561 19.282 4.79576 18.3501L4.79588 18.3501L4.79424 18.337ZM14.4956 12C14.4956 11.4477 14.9433 11 15.4956 11H15.5045C16.0568 11 16.5045 11.4477 16.5045 12C16.5045 12.5523 16.0568 13 15.5045 13H15.4956C14.9433 13 14.4956 12.5523 14.4956 12ZM8.49459 11C7.94231 11 7.49459 11.4477 7.49459 12C7.49459 12.5523 7.94231 13 8.49459 13H8.50357C9.05586 13 9.50357 12.5523 9.50357 12C9.50357 11.4477 9.05586 11 8.50357 11H8.49459Z" fill="#AAAAAA"/>
</svg>
