<svg width="30" height="30" viewBox="0 0 30 30" fill="none" xmlns="http://www.w3.org/2000/svg">
<g filter="url(#filter0_d_2_892)">
<path d="M23.83 8.01002L17.28 2.77002C16 1.75002 14 1.74002 12.73 2.76002L6.17996 8.01002C5.23996 8.76002 4.66996 10.26 4.86996 11.44L6.12996 18.98C6.41996 20.67 7.98996 22 9.69996 22H20.3C21.99 22 23.59 20.64 23.88 18.97L25.14 11.43C25.32 10.26 24.75 8.76002 23.83 8.01002ZM15.75 18C15.75 18.41 15.41 18.75 15 18.75C14.59 18.75 14.25 18.41 14.25 18V15C14.25 14.59 14.59 14.25 15 14.25C15.41 14.25 15.75 14.59 15.75 15V18Z" fill="#E29547"/>
</g>
<defs>
<filter id="filter0_d_2_892" x="0.830078" y="2" width="28.343" height="28" filterUnits="userSpaceOnUse" color-interpolation-filters="sRGB">
<feFlood flood-opacity="0" result="BackgroundImageFix"/>
<feColorMatrix in="SourceAlpha" type="matrix" values="0 0 0 0 0 0 0 0 0 0 0 0 0 0 0 0 0 0 127 0" result="hardAlpha"/>
<feOffset dy="4"/>
<feGaussianBlur stdDeviation="2"/>
<feComposite in2="hardAlpha" operator="out"/>
<feColorMatrix type="matrix" values="0 0 0 0 0 0 0 0 0 0 0 0 0 0 0 0 0 0 0.25 0"/>
<feBlend mode="normal" in2="BackgroundImageFix" result="effect1_dropShadow_2_892"/>
<feBlend mode="normal" in="SourceGraphic" in2="effect1_dropShadow_2_892" result="shape"/>
</filter>
</defs>
</svg>
