<svg width="24" height="24" viewBox="0 0 24 24" fill="none" xmlns="http://www.w3.org/2000/svg">
<path fill-rule="evenodd" clip-rule="evenodd" d="M2.75 12C2.75 6.89137 6.89137 2.75 12 2.75C17.1086 2.75 21.25 6.89137 21.25 12C21.25 14.2736 20.4297 16.3556 19.069 17.9662C18.7066 17.287 18.131 16.6773 17.3887 16.1778L17.3871 16.1767C15.8774 15.1666 13.9234 14.6851 12.0075 14.6851C10.0914 14.6851 8.1336 15.1666 6.61504 16.1753L6.61503 16.1753L6.6113 16.1778C5.86899 16.6773 5.29336 17.287 4.93105 17.9663C3.57028 16.3556 2.75 14.2736 2.75 12ZM14.6523 20.8641C13.8121 21.1152 12.9218 21.25 12 21.25C11.0811 21.25 10.1934 21.116 9.35556 20.8665C8.13973 20.5038 7.02962 19.8966 6.07839 19.1001C6.24614 18.5359 6.67666 17.9423 7.44685 17.4236C8.6681 16.613 10.3195 16.1851 12.0075 16.1851C13.6963 16.1851 15.3419 16.6134 16.5521 17.4228C17.323 17.9418 17.7538 18.5357 17.9216 19.1001C16.9724 19.8949 15.8651 20.5012 14.6523 20.8641ZM9.95308 22.5554C4.995 21.5995 1.25 17.2371 1.25 12C1.25 6.06294 6.06294 1.25 12 1.25C17.9371 1.25 22.75 6.06294 22.75 12C22.75 17.2288 19.0169 21.5856 14.0706 22.5508C13.4009 22.6816 12.7087 22.7501 12 22.7501C11.2997 22.7501 10.6154 22.6832 9.95308 22.5554ZM12 6.97998C10.5957 6.97998 9.46997 8.1127 9.46997 9.50998C9.46997 10.8588 10.5236 11.9585 11.8586 12.0284C11.9506 12.0209 12.0487 12.0202 12.1439 12.0282C13.4732 11.9572 14.5212 10.8618 14.53 9.50786C14.5288 8.11305 13.3951 6.97998 12 6.97998ZM7.96997 9.50998C7.96997 7.28726 9.76427 5.47998 12 5.47998C14.2242 5.47998 16.03 7.28577 16.03 9.50998V9.51422H16.03C16.0177 11.6826 14.3122 13.4557 12.1455 13.5295C12.1015 13.531 12.0575 13.5287 12.0139 13.5224C12.0182 13.5231 12.0191 13.523 12.0163 13.5228C12.0147 13.5227 12.0125 13.5226 12.0098 13.5226C12.008 13.5225 12.006 13.5225 12.0037 13.5225C11.9914 13.5225 11.9801 13.5233 11.973 13.5242C11.9337 13.5291 11.894 13.5309 11.8544 13.5295C9.69158 13.4558 7.96997 11.6854 7.96997 9.50998Z" fill="#AAAAAA"/>
</svg>
