<svg width="96" height="15" viewBox="0 0 96 15" fill="none" xmlns="http://www.w3.org/2000/svg">
<path d="M15.9583 5.65815C15.8535 5.34177 15.5662 5.11707 15.2262 5.08715L10.6082 4.67767L8.78207 0.503887C8.64742 0.198002 8.34077 0 8.00006 0C7.65936 0 7.35271 0.198002 7.21806 0.504602L5.39197 4.67767L0.77321 5.08715C0.433846 5.11778 0.147218 5.34177 0.0418691 5.65815C-0.0634801 5.97452 0.0338122 6.32153 0.290532 6.54028L3.78121 9.52975L2.75189 13.9574C2.67657 14.283 2.80597 14.6195 3.08259 14.8148C3.23128 14.9197 3.40523 14.9731 3.58065 14.9731C3.7319 14.9731 3.88193 14.9333 4.01657 14.8546L8.00006 12.5297L11.9821 14.8546C12.2735 15.0258 12.6408 15.0102 12.9168 14.8148C13.1935 14.6189 13.3228 14.2823 13.2475 13.9574L12.2182 9.52975L15.7089 6.54087C15.9656 6.32153 16.0636 5.97512 15.9583 5.65815Z" fill="#FFC107"/>
<path d="M55.9583 5.65815C55.8535 5.34177 55.5662 5.11707 55.2262 5.08715L50.6082 4.67767L48.7821 0.503887C48.6474 0.198002 48.3408 0 48.0001 0C47.6594 0 47.3527 0.198002 47.2181 0.504602L45.392 4.67767L40.7732 5.08715C40.4338 5.11778 40.1472 5.34177 40.0419 5.65815C39.9365 5.97452 40.0338 6.32153 40.2905 6.54028L43.7812 9.52975L42.7519 13.9574C42.6766 14.283 42.806 14.6195 43.0826 14.8148C43.2313 14.9197 43.4052 14.9731 43.5806 14.9731C43.7319 14.9731 43.8819 14.9333 44.0166 14.8546L48.0001 12.5297L51.9821 14.8546C52.2735 15.0258 52.6408 15.0102 52.9168 14.8148C53.1935 14.6189 53.3228 14.2823 53.2475 13.9574L52.2182 9.52975L55.7089 6.54087C55.9656 6.32153 56.0636 5.97512 55.9583 5.65815Z" fill="#FFC107"/>
<path d="M35.9583 5.65815C35.8535 5.34177 35.5662 5.11707 35.2262 5.08715L30.6082 4.67767L28.7821 0.503887C28.6474 0.198002 28.3408 0 28.0001 0C27.6594 0 27.3527 0.198002 27.2181 0.504602L25.392 4.67767L20.7732 5.08715C20.4338 5.11778 20.1472 5.34177 20.0419 5.65815C19.9365 5.97452 20.0338 6.32153 20.2905 6.54028L23.7812 9.52975L22.7519 13.9574C22.6766 14.283 22.806 14.6195 23.0826 14.8148C23.2313 14.9197 23.4052 14.9731 23.5806 14.9731C23.7319 14.9731 23.8819 14.9333 24.0166 14.8546L28.0001 12.5297L31.9821 14.8546C32.2735 15.0258 32.6408 15.0102 32.9168 14.8148C33.1935 14.6189 33.3228 14.2823 33.2475 13.9574L32.2182 9.52975L35.7089 6.54087C35.9656 6.32153 36.0636 5.97512 35.9583 5.65815Z" fill="#FFC107"/>
<path d="M75.9583 5.65815C75.8535 5.34177 75.5662 5.11707 75.2262 5.08715L70.6082 4.67767L68.7821 0.503887C68.6474 0.198002 68.3408 0 68.0001 0C67.6594 0 67.3527 0.198002 67.2181 0.504602L65.392 4.67767L60.7732 5.08715C60.4338 5.11778 60.1472 5.34177 60.0419 5.65815C59.9365 5.97452 60.0338 6.32153 60.2905 6.54028L63.7812 9.52975L62.7519 13.9574C62.6766 14.283 62.806 14.6195 63.0826 14.8148C63.2313 14.9197 63.4052 14.9731 63.5806 14.9731C63.7319 14.9731 63.8819 14.9333 64.0166 14.8546L68.0001 12.5297L71.9821 14.8546C72.2735 15.0258 72.6408 15.0102 72.9168 14.8148C73.1935 14.6189 73.3228 14.2823 73.2475 13.9574L72.2182 9.52975L75.7089 6.54087C75.9656 6.32153 76.0636 5.97512 75.9583 5.65815Z" fill="#FFC107"/>
<path d="M95.9583 5.65815C95.8535 5.34177 95.5662 5.11707 95.2262 5.08715L90.6082 4.67767L88.7821 0.503887C88.6474 0.198002 88.3408 0 88.0001 0C87.6594 0 87.3527 0.198002 87.2181 0.504602L85.392 4.67767L80.7732 5.08715C80.4338 5.11778 80.1472 5.34177 80.0419 5.65815C79.9365 5.97452 80.0338 6.32153 80.2905 6.54028L83.7812 9.52975L82.7519 13.9574C82.6766 14.283 82.806 14.6195 83.0826 14.8148C83.2313 14.9197 83.4052 14.9731 83.5806 14.9731C83.7319 14.9731 83.8819 14.9333 84.0166 14.8546L88.0001 12.5297L91.9821 14.8546C92.2735 15.0258 92.6408 15.0102 92.9168 14.8148C93.1935 14.6189 93.3228 14.2823 93.2475 13.9574L92.2182 9.52975L95.7089 6.54087C95.9656 6.32153 96.0636 5.97512 95.9583 5.65815Z" fill="#DEDEDE"/>
</svg>
