<svg width="20" height="20" viewBox="0 0 20 20" fill="none" xmlns="http://www.w3.org/2000/svg">
<path fill-rule="evenodd" clip-rule="evenodd" d="M7.16461 2.82282C7.16461 1.26126 8.46451 0 10.051 0C11.6477 0 12.9374 1.26126 12.9374 2.82282C12.9374 4.38438 11.6477 5.64564 10.051 5.64564C8.45427 5.64564 7.16461 4.38438 7.16461 2.82282ZM17.8197 10.0801C17.8606 10.4504 18.1779 10.7307 18.5566 10.7307H18.6385C19.0479 10.6907 19.3448 10.3303 19.3038 9.92991C19.007 7.3173 17.574 4.95494 15.353 3.44343C15.0152 3.2132 14.5546 3.29328 14.3192 3.62361C14.0838 3.95394 14.1657 4.40439 14.5034 4.63462C16.3663 5.89588 17.574 7.87786 17.8197 10.0801ZM1.47382 10.7808H1.54547C1.92418 10.7808 2.25171 10.5005 2.29266 10.1202C2.51783 7.92797 3.71538 5.94599 5.55775 4.66471C5.88528 4.43448 5.96716 3.98403 5.73175 3.6537C5.49634 3.33338 5.02551 3.2533 4.69798 3.48353C2.49736 5.00505 1.08488 7.36741 0.808522 9.98002C0.767581 10.3804 1.06441 10.7408 1.47382 10.7808ZM14.084 19.1091C12.8251 19.6997 11.474 20 10.0615 20C8.58761 20 7.18536 19.6797 5.87523 19.0291C5.50675 18.8589 5.36346 18.4184 5.5477 18.0581C5.7217 17.6977 6.17206 17.5576 6.54053 17.7278C7.18536 18.0481 7.87113 18.2683 8.56714 18.3984C9.5088 18.5786 10.4709 18.5886 11.4126 18.4285C12.1086 18.3083 12.7944 18.0981 13.429 17.7978C13.8077 17.6277 14.258 17.7678 14.4218 18.1382C14.606 18.4985 14.4627 18.939 14.084 19.1091ZM2.88638 11.8719C1.2999 11.8719 0 13.1331 0 14.6947C0 16.2563 1.28966 17.5175 2.88638 17.5175C4.48311 17.5175 5.77277 16.2563 5.77277 14.6947C5.77277 13.1331 4.47287 11.8719 2.88638 11.8719ZM14.2273 14.6947C14.2273 13.1331 15.5272 11.8719 17.1137 11.8719C18.7104 11.8719 20.0001 13.1331 20.0001 14.6947C20.0001 16.2563 18.7104 17.5175 17.1137 17.5175C15.517 17.5175 14.2273 16.2563 14.2273 14.6947Z" fill="white"/>
</svg>
